<?xml version="1.0" encoding="utf-8"?>
<!-- Generator: Adobe Illustrator 25.2.0, SVG Export Plug-In . SVG Version: 6.00 Build 0)  -->
<svg version="1.1" id="Layer_1" xmlns="http://www.w3.org/2000/svg" xmlns:xlink="http://www.w3.org/1999/xlink" x="0px" y="0px"
	 viewBox="0 0 125 125" style="enable-background:new 0 0 125 125;" xml:space="preserve">
<path d="M97.5,66c-0.1-10.2,4.5-17.8,13.8-23.5c-5.2-7.4-13.1-11.5-23.4-12.3c-9.8-0.8-20.6,5.7-24.5,5.7c-4.2,0-13.7-5.5-21.2-5.5
	c-15.4,0.2-31.9,12.3-31.9,36.9c0,7.3,1.3,14.7,4,22.5c3.5,10.2,16.3,35.1,29.7,34.7c7-0.2,11.9-5,21-5c8.8,0,13.4,5,21.2,5
	c13.5-0.2,25-22.8,28.4-33C96.6,83,97.5,66.6,97.5,66L97.5,66z M81.9,20.6c7.6-9,6.9-17.1,6.6-20.1C81.8,0.9,74.1,5,69.7,10.2
	c-4.8,5.5-7.7,12.3-7.1,19.9C69.8,30.6,76.4,26.9,81.9,20.6z"/>
</svg>
