<?xml version="1.0" encoding="utf-8"?>
<!-- Generator: Adobe Illustrator 25.2.0, SVG Export Plug-In . SVG Version: 6.00 Build 0)  -->
<svg version="1.1"
	 id="Layer_1" image-rendering="optimizeQuality" shape-rendering="geometricPrecision" text-rendering="geometricPrecision"
	 xmlns="http://www.w3.org/2000/svg" xmlns:xlink="http://www.w3.org/1999/xlink" x="0px" y="0px" viewBox="0 0 125 125"
	 style="enable-background:new 0 0 125 125;" xml:space="preserve">
<style type="text/css">
	.st0{fill-rule:evenodd;clip-rule:evenodd;fill:url(#SVGID_1_);}
	.st1{fill:#FFFFFF;}
</style>
<g>
	
		<linearGradient id="SVGID_1_" gradientUnits="userSpaceOnUse" x1="-66494.7969" y1="71199.8203" x2="-66494.7969" y2="70542.2656" gradientTransform="matrix(0.1983 0 0 -0.1983 13250.9316 14120.9854)">
		<stop  offset="0" style="stop-color:#00B2FF"/>
		<stop  offset="1" style="stop-color:#006AFF"/>
	</linearGradient>
	<path class="st0" d="M62.5,0.5c34.2,0,62,27.8,62,62s-27.8,62-62,62s-62-27.8-62-62S28.3,0.5,62.5,0.5z"/>
	<path class="st1" d="M70.6,124V76.1h13.5l1.8-16.9H70.6l0-8.4c0-4.4,0.4-6.8,6.7-6.8h8.4V27.2H72.2c-16.2,0-21.9,8.2-21.9,21.9
		v10.1H40.2v16.9h10.1v47.2c3.9,0.8,8,1.2,12.2,1.2C65.2,124.5,67.9,124.3,70.6,124L70.6,124z"/>
</g>
</svg>
