<?xml version="1.0" encoding="utf-8"?>
<!-- Generator: Adobe Illustrator 25.4.1, SVG Export Plug-In . SVG Version: 6.00 Build 0)  -->
<svg version="1.1" id="Layer_1" xmlns="http://www.w3.org/2000/svg" xmlns:xlink="http://www.w3.org/1999/xlink" x="0px" y="0px"
	 viewBox="0 0 227.45 91.02" style="enable-background:new 0 0 227.45 91.02;" xml:space="preserve">
<style type="text/css">
	.st0{fill:#F56119;}
	.st1{fill:#FFFFFF;}
	.st2{opacity:0.2;fill:#F56119;}
	.st3{fill:#222222;}
</style>
<g>
	<g>
		<path class="st0" d="M56.31,53.96l-0.36-1.17l-7.71-24.73L41.09,31L29.22,1L17.34,31l-7.15-2.94L2.48,52.79l-0.03,0.09
			c-0.52,1.56-0.91,3.18-1.15,4.85c-0.01,0.08-0.02,0.15-0.03,0.23C1.2,58.48,1.14,59,1.1,59.52c-0.01,0.16-0.03,0.31-0.04,0.47
			C1.03,60.59,1,61.2,1,61.81c0,15.58,12.64,28.21,28.22,28.21c15.58,0,28.21-12.63,28.21-28.21
			C57.43,59.08,57.04,56.45,56.31,53.96z"/>
		<g>
			<circle class="st1" cx="29.22" cy="62.06" r="16.55"/>
			<circle class="st2" cx="32.96" cy="62.28" r="2.04"/>
			<circle class="st2" cx="25.3" cy="62.28" r="3.45"/>
		</g>
	</g>
	<g>
		<path class="st3" d="M114.46,10.57c-4.72,0-8.55,3.83-8.55,8.55v48.9H81.68v-48.9c0-4.72-3.83-8.55-8.55-8.55
			s-8.55,3.83-8.55,8.55v48.9v1.11c0,8.84,7.16,16,16,16h1.1h24.23h1.1c8.84,0,16-7.16,16-16v-1.11v-48.9
			C123.01,14.4,119.18,10.57,114.46,10.57z"/>
		<path class="st3" d="M176.28,68.02h-32.59v-48.9c0-4.72-3.83-8.55-8.55-8.55s-8.55,3.83-8.55,8.55v48.9v1.11c0,8.84,7.16,16,16,16
			h1.1h32.59c4.72,0,8.55-3.83,8.55-8.55S181,68.02,176.28,68.02z"/>
		<path class="st3" d="M217.9,10.57h-19.5h-1.41h-20.45c-4.72,0-8.55,3.83-8.55,8.55s3.83,8.55,8.55,8.55h12.61v49.6
			c0,4.33,3.51,7.85,7.85,7.85h1.41c4.33,0,7.85-3.51,7.85-7.85v-49.6h11.65c4.72,0,8.55-3.83,8.55-8.55S222.62,10.57,217.9,10.57z"
			/>
	</g>
</g>
</svg>
