<?xml version="1.0" encoding="utf-8"?>
<!-- Generator: Adobe Illustrator 25.2.0, SVG Export Plug-In . SVG Version: 6.00 Build 0)  -->
<svg version="1.1" id="Layer_1" xmlns="http://www.w3.org/2000/svg" xmlns:xlink="http://www.w3.org/1999/xlink" x="0px" y="0px"
	 viewBox="0 0 125 125" style="enable-background:new 0 0 125 125;" xml:space="preserve">
<style type="text/css">
	.st0{fill:#1DA1F2;}
</style>
<path class="st0" d="M39.5,112.9c46.8,0,72.4-38.8,72.4-72.4c0-1.1,0-2.2-0.1-3.3c5-3.6,9.3-8.1,12.7-13.2c-4.6,2-9.5,3.4-14.6,4
	c5.3-3.2,9.3-8.1,11.2-14.1c-5,3-10.5,5.1-16.2,6.2c-4.6-4.9-11.3-8-18.6-8c-14,0-25.4,11.4-25.4,25.4c0,2,0.2,3.9,0.7,5.8
	C40.4,42.3,21.7,32.2,9.1,16.8c-2.3,3.9-3.4,8.3-3.4,12.8c0,8.8,4.5,16.6,11.3,21.2c-4-0.1-8-1.2-11.5-3.2c0,0.1,0,0.2,0,0.3
	c0,12.3,8.8,22.6,20.4,24.9c-2.2,0.6-4.4,0.9-6.7,0.9c-1.6,0-3.2-0.2-4.8-0.5C17.6,83.4,27,90.7,38.2,90.9
	c-8.7,6.8-19.7,10.9-31.6,10.9c-2,0-4.1-0.1-6.1-0.4C11.8,108.7,25.1,112.9,39.5,112.9"/>
</svg>
